<svg xmlns="http://www.w3.org/2000/svg" aria-hidden="true" style="position:absolute;width:0;height:0;overflow:hidden">
  <defs>
    <symbol id="cart-icon" viewBox="0 0 32 32">
      <path d="M4.8 1.6a1.6 1.6 0 0 0 0 3.2h1.952l.488 1.955.016.067 2.173 8.688L8 16.937c-2.016 2.016-.589 5.462 2.262 5.462H24a1.6 1.6 0 0 0 0-3.2H10.262l1.6-1.6H22.4a1.602 1.602 0 0 0 1.431-.884l4.8-9.6a1.602 1.602 0 0 0-1.43-2.315H10.049l-.496-1.989a1.601 1.601 0 0 0-1.552-1.212h-3.2zm20.8 24.8a2.401 2.401 0 1 1-4.802-.001 2.401 2.401 0 0 1 4.802.001zm-15.2 2.4a2.4 2.4 0 1 0 0-4.799 2.4 2.4 0 0 0 0 4.799z"/>
    </symbol>
    <symbol id="close-icon" viewBox="0 0 32 32">
      <path d="M25 9.093 22.907 7 16 13.907 9.093 7 7 9.093 13.907 16 7 22.907 9.093 25 16 18.093 22.907 25 25 22.907 18.093 16 25 9.093z"/>
    </symbol>
     <symbol id="icon-Ellipse" viewBox="0 0 87 32">
      <path d="M77.647 16c0 3.639-15.275 6.588-34.118 6.588S9.411 19.638 9.411 16c0-3.639 15.275-6.588 34.118-6.588S77.647 12.362 77.647 16z"/>
    </symbol>
  </defs>
</svg>
